<svg xmlns="http://www.w3.org/2000/svg" width="24" height="24" fill="currentColor"
    viewBox="0 0 24 24">
    <path fill-rule="evenodd"
        d="M7 7a5 5 0 1 1 10 0v4.2a5 5 0 0 1-10 0V7Zm8.2 0v4.2a3.2 3.2 0 0 1-6.4 0V7a3.2 3.2 0 0 1 6.4 0Z"
        clip-rule="evenodd"></path>
    <path
        d="M4.9 14c.37 0 .7.21.89.53A7.3 7.3 0 0 0 12 18.2a7.31 7.31 0 0 0 6.22-3.67 1.03 1.03 0 0 1 .88-.53c.66 0 1.11.65.8 1.23a9.15 9.15 0 0 1-7 4.72v2.15a.9.9 0 1 1-1.8 0v-2.15c-3-.31-5.6-2.17-7-4.71-.3-.58.15-1.24.8-1.24Z"></path>
</svg>